<svg class="main-svg" xmlns="http://www.w3.org/2000/svg" xmlns:xlink="http://www.w3.org/1999/xlink" width="820" height="200" style="" viewBox="0 0 820 200"><rect x="0" y="0" width="820" height="200" style="fill: rgb(0, 0, 0); fill-opacity: 0;"/><defs id="defs-24b378"><g class="clips"><clipPath id="clip24b378xyplot" class="plotclip"><rect width="820" height="200"/></clipPath><clipPath class="axesclip" id="clip24b378x"><rect x="0" y="0" width="820" height="200"/></clipPath><clipPath class="axesclip" id="clip24b378y"><rect x="0" y="0" width="820" height="200"/></clipPath><clipPath class="axesclip" id="clip24b378xy"><rect x="0" y="0" width="820" height="200"/></clipPath></g><g class="gradients"/><g class="patterns"/></defs><g class="bglayer"><rect class="bg" x="0" y="0" width="820" height="200" style="fill: rgb(0, 0, 0); fill-opacity: 0; stroke-width: 0;"/></g><g class="layer-below"><g class="imagelayer"/><g class="shapelayer"/></g><g class="cartesianlayer"><g class="subplot xy"><g class="layer-subplot"><g class="shapelayer"/><g class="imagelayer"/></g><g class="gridlayer"><g class="x"/><g class="y"/></g><g class="zerolinelayer"/><path class="xlines-below"/><path class="ylines-below"/><g class="overlines-below"/><g class="xaxislayer-below"/><g class="yaxislayer-below"/><g class="overaxes-below"/><g class="plot" transform="" clip-path="url(#clip24b378xyplot)"><g class="scatterlayer mlayer"><g class="trace scatter tracec9ed27" style="stroke-miterlimit: 2; opacity: 1;"><g class="fills"/><g class="errorbars"/><g class="lines"><path class="js-line" d="M176.5,165L66,100L121.25,35" style="vector-effect: non-scaling-stroke; fill: none; stroke: rgb(163, 65, 0); stroke-opacity: 1; stroke-width: 10px; opacity: 1;"/></g><g class="points"><path class="point" transform="translate(176.5,165)" d="M20,0A20,20 0 1,1 0,-20A20,20 0 0,1 20,0Z" style="opacity: 1; stroke-width: 0px; fill: rgb(163, 65, 0); fill-opacity: 1;"/><path class="point" transform="translate(66,100)" d="M20,0A20,20 0 1,1 0,-20A20,20 0 0,1 20,0Z" style="opacity: 1; stroke-width: 0px; fill: rgb(163, 65, 0); fill-opacity: 1;"/><path class="point" transform="translate(121.25,35)" d="M20,0A20,20 0 1,1 0,-20A20,20 0 0,1 20,0Z" style="opacity: 1; stroke-width: 0px; fill: rgb(163, 65, 0); fill-opacity: 1;"/></g><g class="text"/></g></g></g><g class="overplot"/><path class="xlines-above crisp" d="M0,0" style="fill: none;"/><path class="ylines-above crisp" d="M0,0" style="fill: none;"/><g class="overlines-above"/><g class="xaxislayer-above"/><g class="yaxislayer-above"/><g class="overaxes-above"/></g></g><g class="polarlayer"/><g class="smithlayer"/><g class="ternarylayer"/><g class="geolayer"/><g class="funnelarealayer"/><g class="pielayer"/><g class="iciclelayer"/><g class="treemaplayer"/><g class="sunburstlayer"/><g class="glimages"/><defs id="topdefs-24b378"><g class="clips"/></defs><g class="layer-above"><g class="imagelayer"/><g class="shapelayer"/></g><g class="infolayer"><g class="g-gtitle"/><g class="g-xtitle"/><g class="g-ytitle"/><g class="annotation" data-index="0" style="opacity: 1;"><g class="annotation-text-g" transform="rotate(0,508,92.2)"><g class="cursor-pointer" transform="translate(196,-70)"><rect class="bg" x="0.5" y="0.5" width="623" height="323" style="stroke-width: 1px; stroke: rgb(0, 0, 0); stroke-opacity: 0; fill: rgb(0, 0, 0); fill-opacity: 0;"/><text class="annotation-text" text-anchor="middle" x="312.046875" y="253" style="font-family: 'Open Sans', verdana, arial, sans-serif; font-size: 235px; fill: rgb(42, 63, 95); fill-opacity: 1; white-space: pre;">DAGS</text></g></g></g></g></svg>
